<?xml version="1.0" encoding="UTF-8" standalone="no"?>
<svg width="80px" height="236px" viewBox="0 0 80 236" version="1.1" xmlns="http://www.w3.org/2000/svg" xmlns:xlink="http://www.w3.org/1999/xlink" xmlns:sketch="http://www.bohemiancoding.com/sketch/ns">
    <!-- Generator: Sketch 3.3.3 (12072) - http://www.bohemiancoding.com/sketch -->
    <title>traffic_light_red</title>
    <desc>Created with Sketch.</desc>
    <defs></defs>
    <g id="Page-1" stroke="none" stroke-width="1" fill="none" fill-rule="evenodd" sketch:type="MSPage">
        <g id="traffic_light_red" sketch:type="MSLayerGroup">
            <rect id="Rectangle-1-Copy" fill="#CFD8DC" sketch:type="MSShapeGroup" x="0" y="0" width="80" height="235.172414" rx="4"></rect>
            <path d="M15.6170075,64.3829925 C21.8571595,70.6231444 30.4778491,74.4827586 40,74.4827586 C49.5221509,74.4827586 58.1428405,70.6231444 64.3829925,64.3829925 C70.6231444,58.1428405 74.4827586,49.5221509 74.4827586,40 C74.4827586,20.9556983 59.0443017,5.51724138 40,5.51724138 C20.9556983,5.51724138 5.51724138,20.9556983 5.51724138,40 C5.51724138,49.5221509 9.37685561,58.1428405 15.6170075,64.3829925 Z" id="Oval-1-Copy-6" stroke-opacity="0.2" stroke="#000000" fill="#FF5252" sketch:type="MSShapeGroup"></path>
            <path d="M15.6170075,142.314027 C21.8571595,148.554179 30.4778491,152.413793 40,152.413793 C49.5221509,152.413793 58.1428405,148.554179 64.3829925,142.314027 C70.6231444,136.073875 74.4827586,127.453185 74.4827586,117.931034 C74.4827586,98.8867328 59.0443017,83.4482759 40,83.4482759 C20.9556983,83.4482759 5.51724138,98.8867328 5.51724138,117.931034 C5.51724138,127.453185 9.37685561,136.073875 15.6170075,142.314027 Z" id="Oval-1-Copy-4" stroke="#FFFFFF" sketch:type="MSShapeGroup"></path>
            <path d="M15.6170075,220.245061 C21.8571595,226.485213 30.4778491,230.344828 40,230.344828 C49.5221509,230.344828 58.1428405,226.485213 64.3829925,220.245061 C70.6231444,214.004909 74.4827586,205.38422 74.4827586,195.862069 C74.4827586,176.817767 59.0443017,161.37931 40,161.37931 C20.9556983,161.37931 5.51724138,176.817767 5.51724138,195.862069 C5.51724138,205.38422 9.37685561,214.004909 15.6170075,220.245061 Z" id="Oval-1-Copy-2" stroke="#FFFFFF" sketch:type="MSShapeGroup"></path>
            <path d="M64.3829925,64.3829925 C70.6231444,58.1428405 74.4827586,49.5221509 74.4827586,40 C74.4827586,20.9556983 59.0443017,5.51724138 40,5.51724138 C20.9556983,5.51724138 5.51724138,20.9556983 5.51724138,40 C5.51724138,49.5221509 9.37685561,58.1428405 15.6170075,64.3829925 L15.6170075,64.3829925" id="Oval-1-Copy-7" stroke-opacity="0.502292799" stroke="#000000" stroke-width="4" sketch:type="MSShapeGroup"></path>
            <path d="M64.3829925,142.314027 C70.6231444,136.073875 74.4827586,127.453185 74.4827586,117.931034 C74.4827586,98.8867328 59.0443017,83.4482759 40,83.4482759 C20.9556983,83.4482759 5.51724138,98.8867328 5.51724138,117.931034 C5.51724138,127.453185 9.37685561,136.073875 15.6170075,142.314027 L15.6170075,142.314027" id="Oval-1-Copy-5" stroke-opacity="0.502292799" stroke="#000000" stroke-width="4" sketch:type="MSShapeGroup"></path>
            <path d="M0.5,78.5 L79.5,78.5" id="Line-Copy-3" stroke="#FFFFFF" stroke-linecap="square" sketch:type="MSShapeGroup"></path>
            <path d="M64.3829925,220.245061 C70.6231444,214.004909 74.4827586,205.38422 74.4827586,195.862069 C74.4827586,176.817767 59.0443017,161.37931 40,161.37931 C20.9556983,161.37931 5.51724138,176.817767 5.51724138,195.862069 C5.51724138,205.38422 9.37685561,214.004909 15.6170075,220.245061 L15.6170075,220.245061" id="Oval-1-Copy-3" stroke-opacity="0.502292799" stroke="#000000" stroke-width="4" sketch:type="MSShapeGroup"></path>
            <path d="M0.5,156.5 L79.5,156.5" id="Line-Copy-2" stroke="#FFFFFF" stroke-linecap="square" sketch:type="MSShapeGroup"></path>
        </g>
    </g>
</svg>